<?xml version="1.0" encoding="utf-8"?>
<!-- Generator: Adobe Illustrator 23.0.1, SVG Export Plug-In . SVG Version: 6.00 Build 0)  -->
<svg version="1.1" xmlns="http://www.w3.org/2000/svg" xmlns:xlink="http://www.w3.org/1999/xlink" x="0px" y="0px"
	 viewBox="0 0 640 480" style="enable-background:new 0 0 640 480;" xml:space="preserve">
<style type="text/css">
	.st0{fill:#C0C0C0;}
</style>
<g id="Clouds">
	<g>
		<g>
			<path class="st0" d="M130.31,54.2c-15.8-1.27-29.53,12.94-27.46,28.71c2.35,17.83,18.76,26.2,35.33,24.95
				c3.95-0.3,6.37-0.1,9.42,2.89c1.38,1.35,2.43,2.95,4.01,4.12c3.06,2.27,6.82,3.09,10.53,3.61c8.13,1.15,18.5,2.32,24.68-4.43
				c2.14-2.34,2.99-5.15,3.37-8.23c0.2-1.62,0.21-3.27,0.41-4.89c0.11-0.83,0.23-2.08,0.56-2.95c1.19-3.11,3.84-3.02,6.68-3.1
				c8.46-0.22,16.42-0.01,22.27-7.23c5.21-6.42,7.17-16.61,3.39-24.18c-3.43-6.86-11.63-10.25-18.6-6.63
				c0.75,0.43,1.5,0.86,2.26,1.3c-0.81-19.71-21.79-28.94-37.77-18.7c-3.09,1.98-5.81,3.82-9.66,3.81
				c-3.31-0.01-6.67-1.02-9.93-1.51c-5.45-0.81-11.18-1.5-16.69-1.04c-7.5,0.62-15.99,6.01-13.07,14.63
				c0.62,1.82,3.52,1.04,2.89-0.8c-4.29-12.66,15.89-11.08,22.64-10.33c6.97,0.77,14.47,3.77,21.17,0.41
				c3.72-1.86,6.71-4.72,10.79-5.92c4.12-1.21,8.58-1.19,12.67,0.16c8.35,2.75,13.61,10.69,13.97,19.29
				c0.05,1.16,1.23,1.83,2.26,1.3c9.32-4.85,16.25,5.38,15.98,13.7c-0.29,9.05-6.13,16.97-15.24,18.5
				c-5.08,0.85-12.48-1.75-16.64,1.91c-3.66,3.21-2.65,8.8-3.45,13.08c-1.94,10.42-13.77,10.13-22.04,9.2
				c-3.97-0.44-8.06-0.93-11.41-3.27c-2.61-1.82-4.09-4.87-6.84-6.52c-2.41-1.45-5.05-1.42-7.78-1.25
				c-4.13,0.26-8.05,0.45-12.16-0.33c-7.75-1.47-14.37-6.14-18.13-13.11c-8.54-15.83,3.19-35.63,21.59-34.15
				C132.24,57.35,132.23,54.35,130.31,54.2L130.31,54.2z"/>
		</g>
	</g>
	<g>
		<g>
			<path class="st0" d="M351.93,88.87c-4.27,3.69-7.29,8.53-8.26,14.13c-0.33,1.89,2.56,2.7,2.89,0.8c0.89-5.14,3.57-9.41,7.49-12.8
				C355.52,89.73,353.39,87.62,351.93,88.87L351.93,88.87z"/>
		</g>
	</g>
	<g>
		<g>
			<path class="st0" d="M352.12,91.2c-6.22,4.94-14.42,7.79-19.33,14.29c-5.18,6.85-1.91,14.11,2.77,20.26
				c3.38,4.43,7.37,8.38,10.57,12.95c2.44,3.47,3.86,7.25,8.21,8.62c3.39,1.07,7.2,0.77,9.78-1.79c1.67-1.66,2.61-3.89,3.52-6.01
				c2.05-4.74,4.83-4.41,9.1-2.42c10.77,5.03,22.37,8.91,34,4.1c3.55-1.47,4.91-4.13,5.92-7.73c0.76-2.72,0.84-5.99,4.08-7.14
				c2.76-0.97,6.03,0.21,8.89-0.18c4.55-0.61,8.11-4.1,11.57-6.87c4.66-3.72,6.62-7.72,7.89-13.53c0.89-4.05,0.57-7.72-1.92-11.18
				c-3.56-4.94-10.49-6.38-15.78-8.66c-5.88-2.54-11.77-5.1-17.82-7.22c-6.23-2.18-13.43-4.96-20.15-4.23
				c-5.35,0.58-9.34,3.31-13.44,6.53c-4.57,3.59-6.58,3.11-11.97,1.91c-3.23-0.71-5.55,0.25-8.57,1.5c-1.76,0.73-0.99,3.63,0.8,2.89
				c3.26-1.35,5.84-1.73,9.3-0.94c1.76,0.4,3.59,0.82,5.41,0.68c4.07-0.31,6.14-3.3,9.2-5.56c9.85-7.27,21.51-2.62,31.84,1.27
				c4.96,1.87,9.82,3.99,14.69,6.09c4.88,2.11,12.3,3.77,14.89,8.77c2.85,5.49-0.48,14.34-4.79,18.2
				c-4.17,3.72-8.61,7.58-14.43,7.37c-2.95-0.11-6.63-0.52-9.12,1.51c-2.33,1.9-2.69,5.28-3.46,7.97
				c-3.65,12.74-23.73,7.36-32.42,3.35c-5.52-2.55-12.51-6.82-15.77,0.7c-0.88,2.02-1.82,5.19-3.58,6.68
				c-2.51,2.12-7.08,1.78-9.42-0.42c-1.77-1.66-2.9-4.48-4.32-6.44c-1.29-1.78-2.68-3.49-4.1-5.17
				c-5.77-6.83-16.06-16.45-7.98-25.28c5-5.46,12.31-8.22,18.05-12.77C355.75,92.12,353.62,90.01,352.12,91.2L352.12,91.2z"/>
		</g>
	</g>
	<g>
		<g>
			<path class="st0" d="M245.63,350.53c-14.1-14.66-38.99-10.22-47.97,7.7c-3.92,7.82-4.86,17.56-1.51,25.74
				c2.7,6.59,8.24,11.97,14.85,6.58c-0.71-0.71-1.41-1.41-2.12-2.12c-1.33,1.47-2.57,2.87-4.18,4.07c0.61,0.79,1.21,1.57,1.82,2.36
				c1.32-1.68,2.83-2.97,4.49-4.3c-0.71-0.71-1.41-1.41-2.12-2.12c-4.34,4.77-8.89,10.49-9.58,17.15
				c-0.72,7.05,3.91,12.27,9.47,15.91c9.54,6.24,28.75,11.44,35.44-1.41c-0.79,0.1-1.57,0.2-2.36,0.3c5.83,4.89,7.93,12.45,12.95,18
				c4.35,4.81,10.2,6.39,16.49,6.9c5.85,0.47,13.55,0.51,17.93-4.19c5.8-6.24,1.35-16.4,6.33-22.87
				c4.56-5.92,10.68-8.93,13.29-16.38c2.06-5.88,1.84-12.44-0.37-18.24c-2.41-6.35-6.4-10.39-12.91-12.41
				c-7.34-2.28-13.84-1.06-21.3-1.48c-6.61-0.37-10.02-4.08-11.98-10.05c-0.96-2.93-1.86-6.08-4.16-8.29
				c-5.77-5.53-16.29-5.69-23.62-4.68c-1.9,0.26-1.09,3.15,0.8,2.89c8.08-1.11,20.04-0.4,23.31,8.45c1.61,4.38,2.39,8.89,6.44,11.75
				c4.38,3.1,9.6,3.08,14.74,2.77c6.63-0.4,14.39-0.09,20.1,3.82c5.58,3.82,7.77,12.24,7.33,18.64c-0.55,7.8-4.85,12.48-10.36,17.43
				c-4.39,3.94-6.45,7.61-6.84,13.45c-0.3,4.47-0.09,10.64-3.83,13.75c-2.88,2.4-7.3,2.9-10.89,2.82
				c-7.82-0.18-14.94-1.45-19.88-8.05c-4.02-5.38-6.15-11.74-11.43-16.16c-0.7-0.59-1.88-0.62-2.36,0.3
				c-5.6,10.76-21.97,5.93-30.07,1.12c-5.47-3.25-10.43-8.16-9.08-15.06c1.06-5.43,4.91-10.11,8.53-14.08
				c1.33-1.46-0.64-3.32-2.12-2.12c-1.65,1.34-3.17,2.63-4.49,4.3c-0.94,1.2,0.32,3.47,1.82,2.36c1.81-1.34,3.27-2.87,4.79-4.54
				c1.32-1.45-0.64-3.33-2.12-2.12c-7.3,5.96-11.34-8.12-11.69-13.2c-0.52-7.48,1.83-15.18,6.6-21
				c9.86-12.03,28.95-12.77,39.72-1.57C244.85,354.05,246.97,351.92,245.63,350.53L245.63,350.53z"/>
		</g>
	</g>
	<g>
		<g>
			<path class="st0" d="M467.33,358.93c-10.64-0.24-22.92,3.68-27.91,13.92c-2.88,5.92-2.82,13.05-7.48,18.08
				c-4.54,4.9-10.27,8.52-14.28,13.95c-6.18,8.38-7.05,21.99,1.38,29.32c4.51,3.92,9.63,2.88,15.12,3.46
				c6.6,0.69,11.43,5.73,18.15,6.54c4.97,0.6,10.01-0.44,14.37-2.89c2.05-1.15,3.93-2.61,5.57-4.29c2.33-2.37,3.56-5.58,7.09-5.67
				c3.17-0.08,6.62,1.31,9.79,1.72c3,0.39,6.04,0.59,9.06,0.4c5.45-0.35,10.81-1.88,15.25-5.16c4.96-3.67,6.35-8.57,7.21-14.48
				c0.5-3.44,0.8-6.57,2.74-9.56c1.98-3.05,4.72-5.49,7.01-8.29c7.45-9.14,3.3-20.47-4.16-28.19c-4.61-4.78-9.96-9.09-16.7-9.97
				c-6.65-0.87-13.19-0.29-19.85-1.48c-11.45-2.06-23.15-4.08-30.85,6.62c-1.13,1.57,1.47,3.07,2.59,1.51
				c7.08-9.83,18.59-6.77,28.78-5.01c3.95,0.68,7.77,1.06,11.79,1.02c6.9-0.07,12.16,0.91,17.62,5.32
				c4.08,3.3,7.97,7.23,10.18,12.05c3.27,7.11,1.16,13.11-3.81,18.63c-2.64,2.94-5.61,5.94-6.98,9.74
				c-2.09,5.83-0.65,12.84-5.14,17.81c-8.45,9.33-21.82,6.12-32.48,4.51c-2.82-0.43-5.38-0.67-7.46,1.39
				c-1.62,1.6-2.58,3.84-4.28,5.47c-2.36,2.26-5.19,4.01-8.31,5.01c-5.21,1.68-10.92,1.14-15.79-1.33
				c-4.51-2.29-7.65-4.2-12.86-4.51c-6.29-0.37-11.6-0.32-14.84-6.65c-2.93-5.72-2.54-13.26,0.58-18.8
				c3.17-5.63,8.59-9.53,13.25-13.82c4.01-3.68,6.17-7.51,7.7-12.71c1.94-6.57,3.79-12.25,9.88-16.16
				c5.39-3.46,11.74-4.64,18.06-4.5C469.26,361.97,469.26,358.97,467.33,358.93L467.33,358.93z"/>
		</g>
	</g>
	<g>
		<g>
			<path class="st0" d="M560.49,113.35c-13.03,5.6-28.71,23.35-18.38,37.96c4.29,6.07,11.86,5.45,18.44,5.61
				c5.17,0.12,10.94,0.46,9.71,7.21c-0.62,3.4-0.93,5.69,1.99,8.17c5.92,5.04,12.97-1.49,16.64-6.37c2.56-3.4,3.78-7.42,4.22-11.61
				c0.24-2.3,0.24-4.6,0.34-6.91c0.2-4.52,0.33-6.68,3.9-9.55c13.33-10.7,9.37-28.8-4.31-37.09c-15.88-9.63-38.36-0.04-36.51,20.14
				c0.18,1.91,3.18,1.92,3,0c-1.62-17.59,17.38-25.87,31.42-17.89c6.38,3.63,11.94,10.43,11.94,18.05c0,3.82-1.38,7.46-3.63,10.51
				c-1.06,1.43-2.23,2.64-3.61,3.77c-1.1,0.9-2.99,1.64-3.83,2.73c-1.26,1.64-1.18,5.64-1.29,7.6c-0.25,4.17-0.05,8.37-1.14,12.45
				c-1.12,4.18-3.67,7.32-6.9,10.05c-2.59,2.18-5.29,4.09-8.56,1.6c-2.22-1.69-0.59-4.71-0.42-6.78
				c0.97-12.41-15.19-7.89-22.63-9.57c-9.95-2.24-10.25-14.21-6.44-21.76c3.63-7.19,10.26-12.59,17.57-15.74
				C563.77,115.18,562.25,112.59,560.49,113.35L560.49,113.35z"/>
		</g>
	</g>
	<g>
		<g>
			<path class="st0" d="M353.33,92.41c2.79-0.94,5.47-2.13,8.04-3.57c1.68-0.94,0.17-3.54-1.51-2.59c-2.35,1.31-4.78,2.4-7.32,3.26
				C350.72,90.13,351.5,93.03,353.33,92.41L353.33,92.41z"/>
		</g>
	</g>
	<g>
		<g>
			<path class="st0" d="M398.01,88.96c-8.32-2.16-16.14-1.66-24.49,0.05c-2.68,0.55-5.32,1.27-7.99,1.88
				c-1.17,0.27-2.8,0.95-4.02,0.82c0.79-0.11,1.57-0.23,2.36-0.34c-1.07,0.09-2.15,0.12-3.22,0.09c-10.99-0.03-21.51,9.68-21,21
				c0.51,11.4,9.23,20.97,21,21c6.49,0.02,12.96-1.31,19.25-2.84c2.19-0.53,4.92-1.65,7.16-1.55c-1.39-0.06-3.57,0.37-0.86,0.31
				c4.92-0.12-4.2-1.17,0.64,0.09c10.62,2.76,23.29-3.5,25.83-14.67C415.18,103.83,409.39,91.92,398.01,88.96L398.01,88.96z"/>
		</g>
	</g>
	<g>
		<g>
			<path class="st0" d="M568.12,154.16c10.98,0,21.51-9.66,21-21c-0.51-11.38-9.23-21-21-21c-10.98,0-21.51,9.66-21,21
				C547.63,144.54,556.35,154.16,568.12,154.16L568.12,154.16z"/>
		</g>
	</g>
	<g>
		<g>
			<path class="st0" d="M177.96,61.09c-7.25-3.48-14.93-5.37-22.11-0.67c-7.03,4.6-9.5,14.34-4.99,21.54
				c3.58,5.72,10.48,7.34,16.42,4.31c9.81-5.01,10.05-19.85,0.82-25.58c-9.08-5.63-20.02-0.92-24.83,7.93
				c-4.66,8.57-6.2,19.82,1.56,27.12c7.3,6.86,19.63,5.71,24.98-2.87c5.27-8.45,0.5-21.44-7.69-26.21
				c-9.62-5.61-22.82-0.44-24.27,11.04c-1.48,11.69,11.06,21.36,21.73,14.97c9.61-5.75,9.91-18.59,2.55-26.32
				c-5.96-6.26-15.29-8.4-23.51-6.04c-9.49,2.72-17.06,13-14.37,23.02c2.61,9.73,14.33,14.89,23.16,9.66
				c10.06-5.96,8.6-18.86,0.35-25.55c-7.27-5.9-16.93-8.75-25.81-4.78c-9.15,4.1-14.59,14.7-10.65,24.32
				c3.49,8.5,13.3,13.35,22.22,10.98c9.12-2.42,14.5-11.68,13.38-20.79c-1.25-10.2-10.3-17.41-20.51-16.75
				c-11.04,0.71-19.23,10.94-17.87,21.83c2.41,19.37,32.93,26.76,45.67,13.25c-5.66,0-11.31,0-16.97,0
				c9.76,10.08,25.29,9.76,35.5,0.7c-6.69-1.77-13.37-3.53-20.06-5.3c1.55,3.97,1.95,8.01,4.71,11.49c2.7,3.4,6.35,5.68,10.71,6.18
				c10.14,1.15,18.45-8.18,15.29-18.1c-2.8-8.78-13.72-13.46-21.84-8.71c-8.69,5.08-9.21,15.52-5.36,23.76
				c3.41,7.29,13.66,7.28,18.85,2.43c0.79-0.74,1.58-1.48,2.37-2.22c3.66-3.42,4.76-10.28,1.88-14.54
				c-8.91-13.16-27.11-5.35-27.64,9.45c-0.27,7.44,5.32,14.54,13.12,14.63c6.97,0.08,12.48-4.54,15.15-10.68
				c1.97-4.54,2.61-9.25,3-14.17c0.16-1.97,0.15-4,0.47-5.95c-0.21,1.29,0.06,0,0.2-0.53c0.35-1.32-0.1-0.93,0.31-0.98
				c0.35-0.61,0.39-0.67,0.12-0.19c-0.08,0.17-0.17,0.32-0.28,0.47c-0.23,0.01-0.09,0.41-0.45,0.29c1.93,0.6,5.24-0.14,7.3-0.13
				c5.6,0.02,11.3-0.26,16.89,0.13c-2.02-0.55-4.04-1.09-6.06-1.64c0.38,0.17,0.76,0.35,1.13,0.52c-1.44-1.44-2.87-2.87-4.31-4.31
				c0.17,0.28,0.33,0.55,0.5,0.83c-0.55-2.02-1.09-4.04-1.64-6.06c0.03-0.41,0.06-0.83,0.09-1.24c1.03-1.77,2.06-3.53,3.09-5.3
				c4.58-1.48,5.27-2,2.06-1.58c-0.61,0.04-1.23,0.08-1.84,0.12c-2.15,0.14-4.3,0.28-6.45,0.42c-2.54,0.17-7.95,1.31-10.04,0.6
				c1.77,1.03,3.53,2.06,5.3,3.09c-0.3-0.36-0.6-0.71-0.91-1.07c1.03,1.77,2.06,3.53,3.09,5.3c-1.15-2.82-1.98-5.83-2.38-8.85
				c-0.15-1.18,0.38-4.8-0.22-5.48c1.38,1.53-9.55,5.2-4.31,4.43c-2.13,0-4.25,0-6.38,0c-3.18-3.33-4.22-4.09-3.14-2.27
				c0.34,0.66,0.4,0.76,0.19,0.3c-0.15-0.9,0.54,1.95,0.68,2.25c1.09,2.3-0.36,0.85,0.41-0.12c0.51-0.77,1.02-1.53,1.53-2.3
				c1.85-0.54,3.69-1.08,5.54-1.62c0.08-0.18-11.4-7.06-12.83-7.77c-11.14-5.52-23.43-8.27-35.87-7.57c-6.47,0.37-12,5.25-12,12
				c0,6.21,5.5,12.37,12,12c8.44-0.48,16.91,0.75,24.5,4.66c8.98,4.63,17.08,13.17,28.17,9.74c25.31-7.83,8-54.28-14.06-40.6
				c-10.36,6.42-9.1,20.7-6.94,30.93c1.33,6.3,3.68,12.57,9.83,15.48c5.26,2.48,11.34,1.29,16.93,0.92c11.11-0.73,28.05-0.45,28-16
				c-0.03-7.12-5.27-12.43-12.05-13.63c-5.35-0.94-11.24-0.33-16.65-0.34c-11.67-0.03-23.66,0.91-29.78,12.48
				c-2.5,4.72-3.07,9.97-3.48,15.21c-0.07,0.89-0.12,1.78-0.19,2.66c0-0.05-0.44,3.8-0.15,2.1c-0.14,0.83-0.47,1.71-0.57,2.53
				c-0.28,2.45-0.95-0.42,1.44-1.5c2.02-0.55,4.04-1.09,6.06-1.64c-0.33,0.01-0.65,0.02-0.98,0.02c2.02,0.55,4.04,1.09,6.06,1.64
				c-0.27-0.18-0.55-0.36-0.82-0.54c1.84,2.39,3.68,4.78,5.51,7.17c0.52,2.04,0.14,3.85-1.15,5.46c-1.77,1.03-3.53,2.06-5.3,3.09
				c-0.47,0.03-0.94,0.07-1.42,0.1c-2.02-0.55-4.04-1.09-6.06-1.64c0.26,0.12,0.53,0.24,0.79,0.36c-1.44-1.44-2.87-2.87-4.31-4.31
				c0.16,0.23,0.32,0.47,0.48,0.7c0.63-4.85,1.25-9.69,1.88-14.54c-0.79,0.74-1.58,1.48-2.37,2.22c6.28,0.81,12.56,1.62,18.85,2.43
				c1.19,2.44,0.92,4.84-0.82,7.2c-1.77,1.03-3.53,2.06-5.3,3.09c-2.49-0.52-4.98-1.03-7.46-1.55c-1.03-1.77-2.06-3.53-3.09-5.3
				c-0.06-0.5-0.11-0.99-0.17-1.49c0.55-2.02,1.09-4.04,1.64-6.06c-0.16,0.26-0.33,0.52-0.49,0.78c1.43-1.44,2.87-2.87,4.31-4.31
				c-0.3,0.18-0.59,0.36-0.89,0.54c2.02-0.55,4.04-1.09,6.06-1.64c5.4,6.06,7.44,7.08,6.13,3.04c-0.19-1.11-0.53-2.18-1.01-3.2
				c-3.35-8.56-12.86-11.68-20.06-5.3c0.31-0.28,1.77-0.63,0.35-0.2c-1.91,0.58,2.31,0.02-1.27,0.15c1.21-0.04-0.04,0.04-0.62-0.25
				c0.78,0.39,1.48,1.15-0.02-0.4c-4.41-4.56-12.57-4.67-16.97,0c0.07-0.08,0.7-0.25,0.83-0.29c1.02-0.27-1.32,0.01-1.72-0.01
				c-0.7-0.04-2.56-0.31-4.21-0.89c-0.31-0.11-1.95-0.48-0.78-0.32c-1.57-0.22-0.69-1.45,0.12,0.63c1.11,2.87,0.49,6.79-3.83,6.66
				c-8.14-0.25-3.01-13.61,4.01-8.76c5.03,3.48,2.15,7.63-0.92,9.17c1.27-0.64,1.27,2.92,0.42-0.97c0-2.13,0-4.25,0-6.38
				c0.18-0.43,0.36-0.87,0.54-1.3c1.43-1.44,2.87-2.87,4.31-4.31c3.07-1.24,6-0.84,8.82,1.2c1.03,1.77,2.06,3.53,3.09,5.3
				c0.73,1.91-1.57,4.18-2.62,5.14c-0.09,0.09,1.57,0.1,0.34-0.08c-0.47-0.07-0.7-0.15-1.08-0.44c1.36,0.91,1.47,0.87,0.33-0.13
				c-1.46-1.15-1.95-2.81-1.48-4.96c1.03-1.77,2.06-3.53,3.09-5.3c0.14-0.08,0.27-0.16,0.41-0.23c2.02-0.55,4.04-1.09,6.06-1.64
				c-0.43,0.02-0.86,0.03-1.28,0.05c2.02,0.55,4.04,1.09,6.06,1.64c0.27,0.21,0.54,0.42,0.81,0.62c1.03,1.77,2.06,3.53,3.09,5.3
				c-0.25,1.72-0.49,3.44-0.74,5.17c-1.43,1.44-2.87,2.87-4.31,4.31c-4.85,1.25-7.73,0.42-8.64-2.51c-0.7-1.95-0.04-3.89,1.97-5.81
				c1.77-1.03,3.53-2.06,5.3-3.09c3.42-1.25,8.11,9.39,8.11,5.95c-0.01-0.56,0.21-1.06,0.67-1.51c-2.48-1.04-5.15-0.81-8,0.68
				c-1.44-1.44-2.87-2.87-4.31-4.31c-0.2-1.85-0.41-3.71-0.61-5.56c1.03-1.77,2.06-3.53,3.09-5.3c0.34-0.23,0.67-0.47,1.01-0.7
				c5.47,1.44,10.95,2.87,16.42,4.31c0.15,0.28,0.3,0.57,0.44,0.85c0,2.13,0,4.25,0,6.38c-4.69,0.36-6.83,1.84-6.42,4.46
				c-0.01,0.14,0.07,0.24,0.24,0.28c5.84,2.8,12.96,1.6,16.42-4.31C185.34,72.26,183.83,63.91,177.96,61.09L177.96,61.09z"/>
		</g>
	</g>
	<g>
		<g>
			<path class="st0" d="M218.21,346.12c-8.43,4.36-14.08,13.17-14.44,22.67c-0.18,4.75,1.01,9.83,3.38,13.98
				c1.23,2.15,2.79,4.26,4.55,6c1.12,1.03,2.31,1.98,3.55,2.86c-0.44-0.3-0.87-0.6-1.29-0.92c-0.55-2.02-1.09-4.04-1.64-6.06
				c0.4,3.14,2.07-2.49,0.55-1.19c-0.61,0.52-1.14,2.12-1.48,2.84c-1.24,2.6-2.22,5.12-2.51,7.99c-0.74,7.45,3.11,14.35,9.58,18.08
				c5.38,3.09,12.02,3.38,17.87,1.59c2.84-0.87,5.6-2.29,8.17-3.73c0.3-0.17,2.08-1.21,2.05-1.18c-6.02-5.23-8.45-6.23-7.29-2.99
				c0.2,0.7,0.43,1.39,0.67,2.08c3.98,11.17,12.43,20.91,25.29,20.41c6.83-0.26,13.23-3.96,16.63-9.93
				c1.21-2.13,1.93-4.53,2.56-6.89c-0.19,0.7,0.97-3.86,0.63-2.68c-0.45,1.53-2.13,0.39-0.02,0.38c-1.44,0.01,2.28-0.69,3.1-0.91
				c2.11-0.56,4.27-0.99,6.35-1.68c7.39-2.45,13.59-8.63,11.44-17.06c-2.93-11.53-16.1-16.5-26.56-17.93
				c-4.52-0.62-8.89-0.68-12.8-1.63c-4.21-1.02-4.38-1.59-6.66-6.01c-5.61-10.88-17.96-18.09-29.33-10.34
				c-11.54,7.87-17.8,31.13-0.26,36.11c5.41,1.53,8.54,1.34,12.94,4.77c2.49,1.94,5.14,5.51,6.19,8.38
				c2.23,6.08,8.14,10.2,14.76,8.38c5.86-1.61,10.62-8.65,8.38-14.76c-2.85-7.78-7.19-14.73-13.66-20c-3.03-2.47-6.14-4.59-9.69-6.2
				c-2.21-1-4.51-1.97-6.86-2.62c-0.81-0.23-4.09-0.48-4.17-0.52c1.44,1.43,2.87,2.87,4.31,4.31c-0.08,4.95,0.24,6.07,0.98,3.35
				c-0.06,0.16-0.12,0.32-0.18,0.48c0.38-0.8,0.8-1.58,1.27-2.33c-0.15,0.25-0.36,0.43-0.63,0.52c1.27,0.28-6.75,0.76-5.66,0.27
				c-0.23-0.04-0.41-0.16-0.53-0.37c0.39,0.65,0.75,1.32,1.09,2.01c3.41,6.61,7.41,12,14.35,15.21c6.49,3,13.39,3.68,20.43,4.34
				c2.57,0.24,3.58,0.31,6.45,1.12c1.44,0.4,1.21,0.1,2.75,1.11c0.68,0.44,0.75,0.45,0.21,0.05c1.4,1.6,1.32,1.16-0.25-1.3
				c0-2.13,0-4.25,0-6.38c-0.09,0.28-0.17,0.56-0.26,0.84c1.03-1.77,2.06-3.53,3.09-5.3c3.64-3.23,2.23-1.51-0.02-0.91
				c-1.28,0.34-2.57,0.62-3.84,0.96c-3.01,0.8-6.1,1.82-8.84,3.33c-5.45,3.01-11.61,9.97-11.63,16.64
				c-0.01,2.16-1.22,1.02,1.51-0.29c0.28-0.14,1.69-0.44,1.71-0.47c0.48-0.66,1.68,3.42-0.34-0.6c0.46,0.92-0.76-1.55-0.86-1.75
				c-0.95-2.05-1.64-5.73-3.04-8.25c-2.23-4.03-5.68-7.07-10.19-8.28c-7.15-1.93-14.11,1.47-20.1,5.11
				c-2.57,1.56-0.94-0.21,0.62,0.83c0.43,0.29,2.49,6.49,1.54,6.77c1.4-0.41,3.5-7.33,3.79-8.45c1.05-4.03,0.49-8.84-1.67-12.4
				c-0.91-1.51-2.2-2.9-3.5-4.07c-0.04-0.03-3.11-2.91-2.09-1.56c-1.08-1.43-0.92-2.4-0.85-2.69c0.34-1.33,0.9-1.55,2.53-2.4
				c5.76-2.98,7.46-11.03,4.31-16.42C231.21,344.58,223.99,343.13,218.21,346.12L218.21,346.12z"/>
		</g>
	</g>
	<g>
		<g>
			<path class="st0" d="M473.14,370.77c-9.78-0.47-17.4,6.12-21.99,14.19c-1.34,2.36-2.65,5.48-4.13,7.22
				c-1.92,2.27-4.25,3.63-6.94,5.28c-6.24,3.81-15.29,7.68-17.57,15.23c-1.76,5.83,0.71,12.08,5.98,15.16
				c2.04,1.19,4.8,1.77,7.14,1.85c1.09-0.01,2.19-0.08,3.27-0.21c1.5-0.51,1.97-0.41,1.4,0.29c-1.77-1.03-3.53-2.06-5.3-3.09
				c7.26,5.89,14.04,7.31,22.63,2.95c5.23-2.66,10.1-5.08,16.02-5.93c6.5-0.93,12.85,0.94,19.29,0.39
				c8.95-0.77,16.89-7.16,17.53-16.47c0.03-0.39,0.33-4.46-0.15-4.54c-0.12-0.02-0.92,2.79-1.42,2.5c-0.02-0.01,3.55-3.23,4.03-3.62
				c4.8-3.97,8.83-9.1,9.06-15.58c0.59-17.02-17.11-21.2-30.44-22.49c-13.88-1.34-31.85-1.14-42.15,9.67
				c-3.85,4.04-6.18,8.99-8.78,13.83c-1.21,2.26-2.34,4.15-3.44,5.27c-2.6,2.65-5.47,4.51-7.59,7.68
				c-4.73,7.04-4.94,16.41,1.09,22.79c5.2,5.51,13.7,6.74,20.91,6.25c14.09-0.95,26.38-8.24,37.47-16.46
				c7.29-5.41,15-12.21,11.87-22.48c-2.8-9.18-12.77-12.45-21.42-10.15c-9.13,2.43-17.06,9.97-14.71,20.21
				c0.89,3.87,2.9,7.4,5.74,10.19c1.32,1.3,3.02,2.88,4.72,3.6c1.71,0.73,0.92-0.03,1.64,1.45c2.82,5.84,11.14,7.39,16.42,4.31
				c5.96-3.49,7.13-10.56,4.31-16.42c-1.51-3.13-3.9-5.45-6.63-7.51c-0.26-0.2-3.26-2.69-3.62-2.54c0.05,0.05,0.09,0.1,0.14,0.15
				c0.34,0.76,0.67,1.53,0.98,2.31c-0.55,2.02-1.09,4.04-1.64,6.06c-0.18,0.38-2.91,2.2-1.53,1.51c0.71-0.17,0.76-0.21,0.14-0.13
				c-3.1,0.34-5.57-1.45-7.4-5.35c0-2.13,0-4.25,0-6.38c0.25-1.37,2.4-2.12,0.25-0.55c-1.6,1.17-3.18,2.37-4.8,3.52
				c-3.25,2.31-6.59,4.51-10.09,6.42c-2.78,1.52-5.55,2.74-8.62,3.56c-2.2,0.59-6.71,0.28-7.86,0.73c-0.22-0.06-0.43-0.12-0.65-0.17
				c-2.05-0.73-1.63,0.66,1.25,4.17c-6.86-15.73,0.45,4.66,1.97,4.34c1.05-0.22,3.37-2.91,4.09-3.58c2.69-2.53,4.95-5.67,6.78-8.87
				c1.46-2.55,2.68-5.23,4.13-7.79c1.58-2.8,1.92-3.79,3.87-4.51c6.41-2.4,14.57-1.76,21.25-1.26c3.15,0.24,6.58,0.5,9.57,1.61
				c1.42,0.52,0.37,0.04,0.15,0.04c2.73,0.1,0.73,1.06,0.51,0.31c-0.48-1.64-1.81-3.18-1.71-4.92c0.03-0.51,0.81-1.88,0.75-2.19
				c-0.12-0.59,0.43-0.32-0.43,0.31c-0.56,0.41-1.1,0.98-1.63,1.42c-0.84,0.71-1.73,1.38-2.56,2.1c-2.34,2.02-4.39,4.43-5.82,7.17
				c-1.56,2.98-3.41,8.58-1.87,11.8c0.02,0.25,0.04,0.51,0.06,0.76c0.89-1.74,1.78-3.47,2.66-5.21c0.73-1.1,2.76,0.2,0.85-0.7
				c-1.67-0.78-5.26-0.57-7.21-0.71c-8.81-0.61-18.14,0.84-26.36,4.09c-2.27,0.9-4.54,1.84-6.72,2.93c-0.65,0.32-2.38,1-2.97,1.61
				c-0.45,0.26-0.91,0.51-1.36,0.77c2.15,0.27,4.3,0.54,6.45,0.81c0.62-1.94-8.96-4.03-9.91-4.11c-0.81-0.07-1.54-0.16-2.35-0.15
				c-0.27,0-3.43,0.16-1.97,0.45c1.77,1.03,3.53,2.06,5.3,3.09c-0.22-0.24-0.45-0.48-0.67-0.73c1.03,3.89,2.06,7.78,3.09,11.68
				c0.07-0.29,0.14-0.59,0.21-0.88c-1.03,1.77-2.06,3.53-3.09,5.3c2.06-2.12,5.59-3.75,8.34-5.41c3.84-2.31,7.64-4.78,10.99-7.77
				c3.51-3.14,6.18-7,8.41-11.12c0.81-1.51,1.62-3.17,2.38-4.63c1.57-3.05,1.18-0.64,0.46-0.68c6.48,0.31,12-5.74,12-12
				C485.14,376.01,479.64,371.08,473.14,370.77L473.14,370.77z"/>
		</g>
	</g>
	<g>
		<g>
			<path class="st0" d="M503.12,414.77c-9.94,0.67-20.05,0.86-29.91,2.36c-8.32,1.26-15.41,4.63-20.36,11.58
				c-2.45,3.43-0.44,8.19,2.69,10.26c2.89,1.92,6.63,2.51,9.88,1.14c7.51-3.16,7.01-14.29-1.99-14.73
				c-4.34-0.22-8.67-0.27-13.02-0.17c-9.66,0.22-9.65,14.68,0,15c0.5-0.07,0.97,0.02,1.41,0.27c0-4.32,0-8.63,0-12.95
				c-1.94,1.17-10.13-3.61-12.36-4.57c-0.72-0.31-7.48-3.54-7.66-3.29c-0.12,0.16,1.6,3.96,0.7,0.68c-0.27-0.99-0.68-2.07-1.25-2.94
				c-7.06-10.74-21.78,2.3-15.14,12.2c5.33,7.95,18.19,0.63,12.95-7.57c-4.12-6.45,10.61-14.22,14.16-17.88
				c6.29-6.48,7.23-16.13,13.34-22.44c5.67-5.86-2.05-17.09-9.09-11.78c-2.98,2.25-5.66,4.51-8.08,7.36
				c3.93,3.03,7.85,6.06,11.78,9.09c5.16-11.66,18.72-13.07,29.97-14.13c9.62-0.91,9.66-14.11,0-15c-2.03-0.19-4.06-0.37-6.1-0.56
				c0,5,0,10,0,15c8.86,0.68,17.73,1.32,26.59,2.03c5.69,0.46,15.95,1.91,15.97,9.91c0.08,0.7,0.17,0.49,0.26-0.65
				c-0.72,0.58-1.43,1.17-2.13,1.77c-1.34,1.2-2.57,2.49-3.73,3.87c-2.39,2.86-4.51,5.91-6.11,9.28c-3.36,7.06-5,14.64-4.52,22.47
				c0.5,8.07,12.67,10.63,14.73,1.99c2.2-9.22,5.65-17.75,10.53-25.87c4.98-8.3-7.98-15.85-12.95-7.57
				c-5.49,9.15-9.56,19.07-12.04,29.46c4.91,0.66,9.82,1.33,14.73,1.99c-0.52-8.38,1.92-16.67,7.76-22.87
				c2.96-3.14,6.75-5.26,8-9.67c1.3-4.6-0.09-9.68-2.12-13.85c-4.31-8.84-12.85-13.4-22.28-14.65c-10.8-1.44-21.82-1.82-32.69-2.65
				c-9.67-0.74-9.51,14.13,0,15c2.03,0.19,4.06,0.37,6.1,0.56c0-5,0-10,0-15c-16.26,1.53-35.49,4.76-42.93,21.56
				c-1.53,3.46-1.25,7.22,1.93,9.68c2.75,2.12,7.42,2.27,9.85-0.59c1.53-1.8,3.15-3.59,5.04-5.02c-3.03-3.93-6.06-7.85-9.09-11.78
				c-4.13,4.27-6.27,9.27-8.63,14.61c-2.51,5.68-5.8,9.08-10.66,12.88c-9.24,7.24-18.06,19.23-10.55,31
				c4.32-2.52,8.63-5.05,12.95-7.57c0-0.02-0.01-0.04-0.01-0.07c0,1.33,0,2.66,0,3.99c-0.99,0.71-1.98,1.43-2.97,2.14
				c-1.93-0.25-3.85-0.5-5.78-0.76c-1.88-3.04-2.53-3.57-1.96-1.58c0.32,0.9,0.68,1.79,1.08,2.67c1.14,1.9,2.88,3.2,4.79,4.2
				c3.79,1.99,7.99,3.43,11.92,5.12c7.47,3.21,15.41,7.47,23.24,2.74c4.54-2.74,5.21-10.39,0-12.95c-2.96-1.45-5.67-2.21-8.99-2.32
				c0,5,0,10,0,15c4.35-0.1,8.68-0.04,13.02,0.17c-0.66-4.91-1.33-9.82-1.99-14.73c0.56,0.12,1.12,0.25,1.68,0.37
				c0.9,3.42,1.79,6.84,2.69,10.26c2.82-3.96,9.24-4.51,13.64-4.89c7.88-0.67,15.79-1.08,23.69-1.62
				C512.7,429.12,512.77,414.12,503.12,414.77L503.12,414.77z"/>
		</g>
	</g>
	<g>
		<g>
			<path class="st0" d="M291.26,397.61c-4.99,4.97-9.87,10.25-12.56,16.85c-1.33,3.26-2.01,6.6-1.98,10.14
				c0,0.5-0.01,4.73,0.15,4.78c0.54-0.41,1.08-0.83,1.62-1.24c-0.93-0.07-1.87-0.16-2.8-0.25c-2.1-0.08-6.55,1.21-8.23,0.09
				c-2.07-1.38-3.43-6.52-4.49-8.61c-3.3-6.51-7.56-12.45-12.32-17.97c-2.62-3.04-7.94-2.74-10.61,0c-8.19,8.43,2.46,17.43,8.4,23.2
				c3.19,3.1,6.85,5.93,11.2,7.12c4.57,1.26,9.47-0.07,13.85,1.7c4.37,1.77,9.82-2.74,9.49-7.23c-0.42-5.67,5.15-9.16,9.1-12.32
				c2.04-1.64,4.1-3.28,5.85-5.24c1.09-1.22,2.18-2.59,3.07-3.96c0.22-0.34,2.09-2.92,0.86-2.12c-1.26,0.34-2.52,0.68-3.79,1.02
				c0.37-0.02,0.74-0.04,1.1-0.06c-1.26-0.34-2.52-0.68-3.79-1.02c-0.38-0.44-0.76-0.88-1.13-1.32c-0.25-1.93-0.5-3.85-0.76-5.78
				c-0.07,0.31-0.14,0.62-0.21,0.93c4.91,0.66,9.82,1.33,14.73,1.99c-0.97-7.35,1.9-14.97-3.92-21.1
				c-5.36-5.64-15.6-5.82-22.79-5.86c-9.65-0.05-9.67,14.95,0,15c2.37,0.01,4.76,0.06,7.11,0.38c1.2,0.19,2.4,0.41,3.59,0.67
				c1.39,0.64,1.72,0.6,1.01-0.12c1.4,2.67-0.4,7.97,0,11.02c0.49,3.7,2.48,6.89,6.5,7.37c3.53,0.42,7.39-1.67,8.23-5.37
				c1.43-6.33-3-12.08-9.68-11.74c-6.37,0.33-7.72,6.04-11.28,10.02c-3.71,4.14-8.75,6.82-12.43,11.01
				c-4.08,4.64-6.83,10.3-6.37,16.59c3.16-2.41,6.33-4.82,9.49-7.23c-4.87-1.97-10.91,0.01-15.37-2.42
				c-2.03-1.1-3.64-3.11-5.23-4.74c-1-1.02-1.99-2.05-2.99-3.07c-0.4-0.41-0.8-0.82-1.2-1.23c-1.39-1.63-1.57-1.66-0.55-0.09
				c-0.73,1.77-1.46,3.54-2.2,5.3c0.23-0.24,0.47-0.48,0.7-0.72c-3.54,0-7.07,0-10.61,0c5.76,6.69,8.95,14.18,13.23,21.74
				c2.09,3.69,5.02,6.85,9.07,8.33c4.45,1.62,8.77,0.65,13.34,0.82c4.4,0.17,8.36,0.24,11.84-2.99c3.15-2.94,4.3-7.18,4.37-11.35
				c0.07-4.23-0.33-7.22,1.95-11.02c2.12-3.53,5.12-6.43,8.02-9.31C308.72,401.4,298.12,390.79,291.26,397.61L291.26,397.61z"/>
		</g>
	</g>
	<g>
		<g>
			<path class="st0" d="M272.84,376.49c-4.54-3.81-7.89-8.16-10.14-13.65c-2.26-5.51-4.88-10.17-10.96-12.04
				c-5.17-1.6-10.45,0.33-15.52-0.83c-2.18-0.5-3.84-2.13-5.76-3.18c-2.99-1.63-6.22-2.59-9.64-2.61
				c-12.84-0.08-20.9,11.06-24.82,21.95c-2.08,5.78-2.88,12.42,0.28,17.99c1.46,2.57,3.64,4.68,6.26,6.01
				c1.71,0.87,3.52,1.24,5.41,1.45c0.56,0.05,1.13,0.11,1.69,0.16c1.93,0.28,2.26,0.21,0.99-0.21c-0.34-1.26-0.68-2.52-1.02-3.79
				c0,0.43,0,0.85,0,1.28c0.34-1.26,0.68-2.52,1.02-3.79c-1.81,3.7-4.26,6.84-5.85,10.78c-1.34,3.33-2.47,6.69-2.75,10.3
				c-0.65,8.34,4.65,14.38,12.32,16.86c6.98,2.26,17.26,4.65,24.52,2.55c8.05-2.33,11.89-10.92,8.12-18.36
				c-4.36-8.61-17.31-1.03-12.95,7.57c1.9-2.99,1.8-4.17-0.31-3.52c-0.54-0.02-1.08-0.04-1.62-0.06c-1.9-0.07-3.83-0.46-5.7-0.8
				c-1.9-0.34-8.2-0.78-9.52-2.48c-1.34-1.72,3.36-10.15,4.89-12.47c4.29-6.51,3.27-14.15-4.52-17.53c-1.73-0.75-7.36-0.7-8.04-1.52
				c-1.18-1.42,1.22-6.55,1.77-7.84c1.72-4.02,5.38-10.58,10.76-9.43c3.18,0.68,6.07,3.8,9.3,4.81c2.92,0.91,6.12,1.01,9.16,0.94
				c1.78-0.04,5.34-0.87,6.97,0.06c1.3,0.74,2.01,4.29,2.63,5.68c2.81,6.32,7.11,11.9,12.4,16.34
				C269.58,393.26,280.25,382.7,272.84,376.49L272.84,376.49z"/>
		</g>
	</g>
	<g>
		<g>
			<path class="st0" d="M224.36,357.67c3.22,3.09,6.62,7.51,10.98,8.94c4.39,1.43,9.54,0.7,13.93-0.34
				c5.39-1.28,7.39-8.76,3.31-12.54c-2.58-2.39-5.3-3.96-8.61-5.12c-3.82-1.34-8.2,1.52-9.23,5.24c-1.14,4.13,1.4,7.88,5.24,9.23
				c0.91,0.32,1.3,0.62,1.99,1.26c1.1-4.18,2.21-8.36,3.31-12.54c-1.15,0.27-1.88,0.45-3.06,0.53c-0.64,0.04-1.28,0.05-1.92,0.02
				c-1.02-0.08-0.86,0.02,0.49,0.31c-1.78-1.98-3.9-3.75-5.83-5.59C228,340.38,217.38,350.97,224.36,357.67L224.36,357.67z"/>
		</g>
	</g>
	<g>
		<g>
			<path class="st0" d="M243.4,348.38c-1.76,0-3.52,0-5.28,0c-3.92,0-7.68,3.45-7.5,7.5c0.18,4.06,3.3,7.5,7.5,7.5
				c1.76,0,3.52,0,5.28,0c3.92,0,7.68-3.45,7.5-7.5C250.72,351.82,247.6,348.38,243.4,348.38L243.4,348.38z"/>
		</g>
	</g>
	<g>
		<g>
			<path class="st0" d="M163.8,101.56c-3.83-8.32-13.09-11.59-21.66-12.13c-2.46-0.16-4.94-0.03-7.4-0.04
				c-1.52,0-3.08,0.03-4.6-0.14c-0.21-0.02-3.3-0.27-2.43,0.09c0.16,0.91,0.05,0.68-0.33-0.69c-0.25-0.6-0.5-1.19-0.76-1.79
				c-0.49-0.87-1.2-1.88-1.9-2.57c-1.98-1.97-4.73-3.01-7.48-2.72c1.77,0.73,3.54,1.46,5.3,2.2c-2.07-1.88-3.05-4.22-2.6-7.05
				c0.59-3.74,3.3-4.94,6.43-6.49c8.49-4.18,15.2-12.71,9.99-22.24c-2.16,3.76-4.32,7.52-6.48,11.29
				c12.97-1.49,25.94-2.97,38.91-4.46c4.85-0.56,11.46-2.28,16.04,0.08c4.22,2.18,7.03,7.38,10.1,10.84
				c4.21,4.75,13.22,1.09,12.8-5.3c-0.41-6.39-2.55-11.55-6.7-16.42c-3.42-4.01-11.74-2.17-12.54,3.31
				c-1.37,9.37-1.53,22.35,8.52,27.09c4.91,2.31,10.66,1.4,14.39-2.58c0.32-0.42,0.64-0.83,0.96-1.25c1.67-1.73,0.3-2.07-4.12-1.01
				c-0.25,0.51,0.08,2.32,0.05,2.94c-0.05,0.99-0.06,2.24-0.44,3.17c-0.63,1.54,0.83-0.15-0.3,0.59c-1.34,0.88-3.96,0.46-5.46,0.48
				c-2.83,0.04-5.66,0.06-8.49,0.09c-5.19,0.06-11.59-0.92-15.64,3.07c-3.76,3.72-3.97,10.11-0.28,13.99
				c4.19,4.4,10.13,3.24,14.41-0.09c-3.54-3.54-7.07-7.07-10.61-10.61c-6.15,6.54-9.52,15.21-8.54,24.23
				c1.84-2.41,3.67-4.82,5.51-7.23c-8.96,3.04-18.27,2.22-26.13-3.21c-7.57-5.23-14.94-11.81-24.85-8.1
				c-3.13,1.17-5.51,3.72-5.51,7.23c0,3.01,2.3,6.75,5.51,7.23c2.2,0.33,4.39,0.66,6.59,0.98c-0.6-4.57-1.19-9.14-1.79-13.71
				c-6.16,3.29-14.13,1.4-16.72-5.46c-2.37-6.28,2.07-12.88,8.77-13.04c9.64-0.23,9.67-15.23,0-15
				c-16.2,0.39-28.49,16.22-23.23,32.02c5.45,16.39,23.96,22.34,38.76,14.43c5.28-2.82,4.71-12.74-1.79-13.71
				c-2.2-0.33-4.39-0.66-6.59-0.98c0,4.82,0,9.64,0,14.46c3.91-1.46,7.11,1.87,10.06,4.15c3.61,2.8,7.3,5.06,11.56,6.72
				c9.35,3.65,19.9,3.65,29.36,0.44c2.86-0.97,5.87-3.88,5.51-7.23c-0.56-5.19,0.51-9.75,4.15-13.62
				c6.81-7.24-3.17-16.37-10.61-10.61c0.48-0.35,0.95-0.7,1.43-1.04c1.33,0,2.66,0,3.99,0c0.7,0.57,1.39,1.13,2.09,1.7
				c0.34,1.26,0.68,2.52,1.02,3.79c-5.01,3.33-5.71,4.75-2.08,4.25c1.26-0.01,2.52-0.03,3.77-0.04c2.52-0.03,5.03-0.05,7.55-0.08
				c4.07-0.04,8.32,0.1,12.27-1.05c8.46-2.45,11.33-10.1,11.75-18.23c0.42-8.03-4.06-17.07-13.3-16.78
				c-2.07,0.07-4.12,0.69-5.83,1.85c-0.92,0.55-1.69,1.25-2.32,2.11c-1.96,1.79-1.47,2.2,1.49,1.2c0.37-0.55-0.44-2.61-0.51-3.31
				c-0.22-2.04-0.17-4.25,0.13-6.28c-4.18,1.1-8.36,2.21-12.54,3.31c1.42,1.67,2.17,3.64,2.31,5.81c4.27-1.77,8.54-3.54,12.8-5.3
				c-3.86-4.36-7.04-9.24-12-12.49c-5.76-3.77-12.67-4.1-19.32-3.45c-14.8,1.44-29.57,3.38-44.35,5.08
				c-5.58,0.64-9.43,5.89-6.48,11.29c-1.15-2.1,0.82-1.11-0.81-0.37c-1.04,0.47-2.06,1.22-3.1,1.75c-2.44,1.23-4.79,2.37-6.92,4.11
				c-3.71,3.03-6.2,7.37-7.17,12.06c-1.66,8.03,1.97,24.48,12.96,23.35c-1.26-0.34-2.52-0.68-3.79-1.02
				c-1.32-2.04-1.62-2.17-0.9-0.4c0.35,1,0.8,1.96,1.35,2.86c1.29,1.91,3.02,3.15,5.07,4.14c3.92,1.88,8.5,2.24,12.78,2.35
				c5.67,0.15,15.02-1.64,17.96,4.75C154.88,117.9,167.81,110.28,163.8,101.56L163.8,101.56z"/>
		</g>
	</g>
	<g>
		<g>
			<path class="st0" d="M194.03,40.5c-6.78-1.45-13.67-2.39-20.59-2.82c0.66,4.91,1.33,9.82,1.99,14.73c4.08-0.91,8.11-1.17,12.29-1
				c9.65,0.4,9.63-14.6,0-15c-5.48-0.23-10.92,0.35-16.27,1.53c-8.62,1.91-6.1,14.23,1.99,14.73c5.61,0.35,11.1,1.11,16.6,2.28
				C199.46,56.97,203.48,42.52,194.03,40.5L194.03,40.5z"/>
		</g>
	</g>
	<g>
		<g>
			<path class="st0" d="M339.32,106.18c-4.16,3.6-6.35,8.9-5.91,14.38c4.91-0.66,9.82-1.33,14.73-1.99
				c-0.2-1.07-0.43-4.09-1.04-4.99c-0.03-0.32-0.05-0.64-0.08-0.96c-0.96,2.14-2.83,2.18-5.59,0.13c-0.34-1.26-0.68-2.52-1.02-3.79
				c0.18,3.29-1.69,6.76-1.79,10.2c-0.12,4.33,1.02,8.72,2.47,12.76c2.51,7,6.12,14.59,14.86,13.86c3.34-0.28,6.36-2.19,8.61-4.6
				c1.2-1.28,2.16-2.82,3.12-4.28c0.23-0.34,0.48-0.94,0.78-1.24c1.02-1.02-0.19,0.15-0.36,0.11c8.1,1.74,16.19,3.48,24.42,4.89
				c7.74,1.32,15.53,3.03,20.34-4.86c1.41-2.32,2.18-6.67,4.48-8.31c2.23-1.59,6.44-0.66,8.97-0.58c7.58,0.24,14.33-1.73,19.06-7.97
				c4.63-6.12,7.51-15.48,3.9-22.74c-3.51-7.06-12.45-10.6-19.4-6.16c-3.6,2.3-4.93,5.89-6.69,9.52c-0.64,1.32-1.25,2.41-2.51,3.22
				c-0.51,0.33-1.08,0.48-1.63,0.71c-1.08,0.43-2.2-0.52-1.04,0.29c1.15,1.49,2.3,2.99,3.45,4.48c-0.1-0.34-0.21-0.68-0.31-1.01
				c0,1.33,0,2.66,0,3.99c0.8-2.82,6.04-5.05,8.22-6.52c3.36-2.27,5.75-5.49,5.75-9.68c0-4.33-3.06-8.18-6.79-10.03
				c-3.73-1.85-7.43-1.04-11.35-1.63c-8.5-1.28-15.39-7.1-24.22-7.61c-4.19-0.24-8.34,0.6-12.03,2.62c-3.65,2-5.77,4.87-10.13,5
				c-7.86,0.24-16.83,0.58-20.05,9.42c-2.86,7.84,2.81,15.43,10.47,17.35c3.82,0.96,7.9,0.5,11.77,0.26
				c5.1-0.32,10.19-0.72,15.27-1.21c9.57-0.91,19.1-2.11,28.61-3.52c4-0.59,6.24-5.67,5.24-9.23c-1.2-4.29-5.19-5.83-9.23-5.24
				c-10.71,1.58-21.46,2.79-32.25,3.64c-2.55,0.2-5.09,0.38-7.64,0.54c-2.24,0.14-5.18-0.27-7.3,0.3c-0.3,0.02-0.58-0.02-0.86-0.12
				c-0.55-0.26-0.6-0.03-0.15,0.67c-0.18,0.29,0.08,2.62-0.15,2.4c0.07,0.07,5.89-0.28,6.28-0.28c4.89-0.04,9.18-1.15,13.22-3.94
				c3.88-2.68,6.05-4.37,10.87-3.26c4.67,1.07,8.89,3.53,13.35,5.19c2.5,0.92,5,1.55,7.65,1.89c1.17,0.15,2.32,0.24,3.49,0.27
				c0.52,0,1.04,0,1.56,0c1.3,0.21,1.18-0.29-0.35-1.49c0-1.33,0-2.66,0-3.99c0.17-1.23-3.05,1.53-3.76,2.06
				c-1.57,1.16-3.07,2.4-4.45,3.78c-2.76,2.76-5.76,6.21-5.76,10.37c0,9,10.27,10.51,17.02,8.58c5.95-1.7,13.61-7.83,14.38-14.47
				c1.32-1.67,0.62-1.88-2.1-0.63c0.13-0.27,0.2-0.1,0.2,0.5c-0.53,1.17-0.46,2.92-1.01,4.2c-1.51,3.56-3.45,4.53-7.12,4.51
				c-7.53-0.03-15.16-0.88-21.04,4.93c-2.12,2.1-5.67,6.44-5.86,9.49c-1.11,1.51-0.74,1.76,1.09,0.76c-0.61-0.1-1.21-0.21-1.82-0.31
				c-2.12-0.83-5.03-0.86-7.28-1.24c-4.24-0.73-8.5-1.42-12.74-2.18c-3.81-0.68-7.51-2.45-11.34-2.78
				c-3.73-0.32-7.28,0.9-10.02,3.49c-1.43,1.35-2.6,3.02-3.69,4.65c-0.37,0.6-0.75,1.21-1.13,1.81c-0.55,0.72-0.63,0.79-0.24,0.2
				c1.26,0.34,2.52,0.68,3.79,1.02c-1.57-0.74-2.5-5.27-3.04-7.15c-0.76-2.63-1.08-4.93-0.51-7.61c1.37-6.4,2.81-13.5-4.56-16.96
				c-5.12-2.41-11.08-0.28-14.48,4c-4.38,5.51-2.42,12.21-1.25,18.49c1.54,8.23,15.42,6.45,14.73-1.99
				c-0.17-2.09-0.04-2.44,1.51-3.78C357.24,110.45,346.59,99.88,339.32,106.18L339.32,106.18z"/>
		</g>
	</g>
	<g>
		<g>
			<path class="st0" d="M419.13,86.54c-4.17-5.04-9.27-12.12-16.9-9.48c-3.7,1.28-6.54,5.2-5.24,9.23c1.18,3.66,5.26,6.61,9.23,5.24
				c-0.49,0.17-1.46,0.03-1.96-0.1c-0.59-0.15-0.89-0.62-1.39-0.81c0.66,0.25,1.42,1.43,1.85,1.94c1.27,1.52,2.53,3.06,3.8,4.59
				c2.51,3.04,8.04,2.79,10.61,0C422.09,93.91,421.8,89.77,419.13,86.54L419.13,86.54z"/>
		</g>
	</g>
	<g>
		<g>
			<path class="st0" d="M586.29,165.45c0.75-1.87,1.51-3.73,2.26-5.6c3.34-8.28-9.24-12.41-13.71-5.78
				c-1.71,2.53-3.24,5.11-4.65,7.82c-4.53,8.7,7.37,15.32,12.95,7.57c4.77-6.63,1.48-14.82-4.12-19.67
				c-2.92-2.53-6.24-4.44-9.82-5.85c-1.92-0.75-3.82-1.32-5.84-1.69c-1.43-0.26-3.99,0.03-5.23-0.85c-4.92-3.5,4.53-8.93,7.09-10.35
				c6.59-3.65,12.99-9.57,11.96-17.87c-4.91,0.66-9.82,1.33-14.73,1.99c0.09,0.25,0.17,0.51,0.26,0.76c0-1.33,0-2.66,0-3.99
				c0.37-0.66,0.75-1.32,1.12-1.98c4.18,1.1,8.36,2.21,12.54,3.31c-1.23-3.71-3.48-6.38-7.45-7.22c0.6,4.57,1.19,9.14,1.79,13.71
				c3.3-2.54,8.42-7.03,12.9-5.12c3.59,1.54,5.27,8.37,3.76,11.69c-0.7,1.53-3.39,3.27-4.4,4.78c-1.53,2.29-2.5,4.91-3.22,7.57
				c-1.65,6.05-2.57,12.29-3.33,18.51c5,0,10,0,15,0c0.54-13.89,1.67-27.74,3.37-41.55c0.45-3.65-3.2-6.97-6.5-7.37
				c-3.86-0.46-6.94,1.77-8.23,5.37c-1.69,4.72-3.42,10.11,1.25,13.84c4.16,3.32,10.9,2.12,15.86,2.12c9.65,0.01,9.67-14.99,0-15
				c-3.5,0-7.08,0.21-10.57-0.09c1.26,0.34,2.52,0.68,3.79,1.02c-0.25-0.14-0.5-0.28-0.74-0.42c1.15,1.49,2.3,2.99,3.45,4.48
				c-0.08-0.32-0.16-0.63-0.25-0.95c0,1.33,0,2.66,0,3.99c0.42-1.71,1.09-3.35,1.68-5.01c-4.91-0.66-9.82-1.33-14.73-1.99
				c-1.7,13.8-2.82,27.65-3.37,41.55c-0.16,4.05,3.56,7.5,7.5,7.5c4.47,0,7-3.46,7.5-7.5c0.5-4.04,1.24-8.06,2.18-12.02
				c0.89-3.79,1.78-5.52,4.37-8.23c5.49-5.75,5.52-15.5,3.3-22.75c-2.16-7.06-7.81-12.68-15.06-14.38
				c-8.56-2.02-16.45,1.92-23.07,7.01c-4.6,3.54-5.21,12.23,1.79,13.71c-1.01-1.09-2.02-2.17-3.02-3.26
				c1.83,5.51,8.23,7.17,12.54,3.31c2.64-2.37,3.62-6.02,2.48-9.39c-2.54-7.46-15.84-6.89-14.73,1.99c0.38,3.04-2.91,4-5.23,5.3
				c-2.78,1.55-5.5,3.2-7.85,5.4c-5.22,4.89-8.34,11.99-6.81,19.17c1.45,6.84,6.44,11.81,13.33,13.14c3.14,0.61,6.24,0.76,9.2,2.1
				c1.34,0.61,2.77,1.42,3.92,2.36c0.6,0.5,1.15,1.05,1.66,1.64c0.22,0.13,0.15,0-0.2-0.39c4.32,2.52,8.63,5.05,12.95,7.57
				c1.41-2.71,2.95-5.29,4.65-7.82c-4.57-1.93-9.14-3.85-13.71-5.78c-0.75,1.87-1.51,3.73-2.26,5.6c-1.53,3.78,1.67,8.2,5.24,9.23
				C581.33,171.91,584.78,169.19,586.29,165.45L586.29,165.45z"/>
		</g>
	</g>
	<g>
		<g>
			<path class="st0" d="M577.68,111.21c-1.87,1.54-3.66,3.18-5.37,4.9c3.93,0.51,7.85,1.01,11.78,1.52
				c0.42,1.07,0.51,1.22,0.26,0.46c-0.13-0.64-0.14-0.62-0.03,0.06c0.08,0.68,0.1,0.7,0.06,0.05c0-0.32,0.03-0.63,0.07-0.95
				c0.34-3.11-2.56-6.56-5.51-7.23c-3.16-0.72-6.87,0.44-8.47,3.45c-0.44,0.83-0.89,1.66-1.33,2.49c-1.85,3.46-0.98,8.32,2.69,10.26
				c3.48,1.84,8.29,1.01,10.26-2.69c0.44-0.83,0.89-1.66,1.33-2.49c-4.66-1.26-9.32-2.52-13.98-3.79c-0.31,2.83,0.54,5.41,1.69,7.95
				c2.02,4.47,8.67,4.66,11.78,1.52c1.71-1.73,3.5-3.36,5.37-4.9c3.04-2.5,2.79-8.05,0-10.61
				C585.05,108.25,580.92,108.54,577.68,111.21L577.68,111.21z"/>
		</g>
	</g>
	<g>
		<g>
			<path class="st0" d="M572.2,116.66c9.65,0,9.67-15,0-15C562.55,101.66,562.53,116.66,572.2,116.66L572.2,116.66z"/>
		</g>
	</g>
	<g>
		<g>
			<path class="st0" d="M571.24,114.26c9.65,0,9.67-15,0-15C561.59,99.26,561.57,114.26,571.24,114.26L571.24,114.26z"/>
		</g>
	</g>
</g>
<g id="Plane">
	<g>
		<g>
			<path d="M70.66,194.38c28.84,9.55,60.83,7.47,90.82,8.17c32.52,0.76,65.04,1.52,97.56,2.28c32.48,0.76,64.96,1.63,97.44,2.26
				c16.48,0.32,32.96,0.45,49.44-0.13c7.13-0.25,14.26-0.94,21.4-1.09c9.1-0.19,15.66,3.69,23.63,7.39
				c13.16,6.1,27.1,10.5,41.39,13.05c6.03,1.08,12.12,1.83,18.22,2.26c3.58,0.25,7.18,0.39,10.77,0.41
				c2.94,0.02,10.8-1.68,12.26,1.31c2.9,5.94-4.38,15.91-7.45,20.65c-3.93,6.07-8.44,11.74-13.45,16.95
				c-9.14,9.49-19.88,17.33-31.7,23.14c-26.29,12.93-56.2,15.45-85.06,16.03c-31.56,0.64-63.18,0.21-94.75,0.24
				c-73.2,0.07-146.4,0.14-219.59,0.21c-0.71,0-1.21,0.48-1.45,1.1c-7.19,18.68-11.99,38.06-14.46,57.92c-0.24,1.91,2.76,1.89,3,0
				c2.43-19.58,7.27-38.71,14.35-57.12c-0.48,0.37-0.96,0.73-1.45,1.1c71.2-0.07,142.4-0.13,213.6-0.2
				c34.43-0.03,68.93,0.55,103.36-0.3c29.41-0.72,59.76-3.79,86.26-17.55c13.69-7.11,25.93-17.02,35.77-28.9
				c4.76-5.75,9.09-11.95,12.57-18.55c3.12-5.92,5.13-12.37,2.04-18.68c-0.22-0.44-0.81-0.78-1.3-0.74
				c-29.78,1.96-59.57-3.92-86.29-17.24c-4.77-2.38-9.32-4.71-14.71-5.28c-7.57-0.79-15.43,0.45-23.02,0.77
				c-15.81,0.67-31.64,0.64-47.45,0.38c-63-1.01-125.99-2.89-188.98-4.37c-17.07-0.4-34.15-0.72-51.22-1.21
				c-17.16-0.5-34.34-1.7-50.74-7.13C69.62,190.88,68.83,193.78,70.66,194.38L70.66,194.38z"/>
		</g>
	</g>
	<g>
		<g>
			<path d="M72.35,192.5c-11.51-23.25-21.01-47.4-28.45-72.25c-0.55-1.85-3.45-1.06-2.89,0.8c7.51,25.1,17.12,49.49,28.75,72.97
				C70.61,195.74,73.2,194.22,72.35,192.5L72.35,192.5z"/>
		</g>
	</g>
	<g>
		<g>
			<path d="M432.49,233.91c1.26,3.84,2.22,7.73,2.68,11.76c0.32,2.79,1.28,7.89,0.21,10.51c-1.02,1.31-2.04,2.61-3.05,3.92
				c-1.33-0.06-2.66-0.12-3.99-0.18c-1.66-0.07-3.32-0.15-4.98-0.22c-3.68-0.16-8.39,0.34-11.96-0.53
				c-5.12-1.24-3.74-5.83-3.75-10.02c-0.01-3.28-1.18-8.95,0.18-11.94c1.54-3.38,8.72-1.83,11.56-2.14
				c3.06-0.34,5.99-1.07,8.91-2.05c0.91-0.3,0.52-1.75-0.4-1.45c-3.37,1.13-6.74,1.93-10.3,2.15c-2.42,0.15-5-0.44-7.37-0.07
				c-2.66,0.42-3.68,1.81-4.05,4.46c-0.76,5.36-0.07,11.34-0.02,16.76c0.02,2.52-0.2,4.38,2.29,5.45c1.76,0.75,4.07,0.41,5.93,0.49
				c3.32,0.15,6.64,0.29,9.97,0.44c2.86,0.13,9.05,1.82,11.39-0.6c2.27-2.34,1.35-8.68,1.21-11.49c-0.27-5.35-1.35-10.57-3.02-15.65
				C433.63,232.6,432.18,232.99,432.49,233.91L432.49,233.91z"/>
		</g>
	</g>
	<g>
		<g>
			<path d="M374.76,235.91c0.01,3.77,0.01,7.53,0.02,11.3c0,3.12,0.75,7.32,0.02,10.36c-0.95,3.94-6.72,3.27-10.23,3.3
				c-3.84,0.03-7.98-0.06-11.71-1.02c-5.31-1.37-4.62-8.06-4.83-12.46c-0.08-1.62-0.15-3.24-0.23-4.86
				c-0.06-1.3-0.12-2.59-0.18-3.89c1.37-1.06,2.73-2.12,4.1-3.18c-0.36,0.07,4.13,0.57,3.79,0.55c1.81,0.15,3.63,0.14,5.44-0.01
				c3.11-0.26,6.08-1.04,9-2.1c0.9-0.33,0.51-1.78-0.4-1.45c-3.38,1.22-6.81,2.03-10.42,2.15c-2.89,0.1-5.79-0.99-8.59-0.86
				c-2.54,0.12-3.94,0.67-4.4,3.41c-0.85,4.94,0.39,11.07,0.65,16.07c0.16,2.92,0.35,5.55,3.1,7.16c3.01,1.78,7.74,1.76,11.1,1.92
				c3.54,0.17,10.47,1,13.7-0.93c2.35-1.4,1.6-4.19,1.59-6.63c-0.01-6.28-0.02-12.56-0.03-18.84
				C376.26,234.94,374.76,234.94,374.76,235.91L374.76,235.91z"/>
		</g>
	</g>
	<g>
		<g>
			<path d="M309.69,235.78c-1.06,5.09-2.13,10.17-3.19,15.26c-0.59,2.8-1.05,11.35-3.98,12.33c-1.39,0.46-5.71-1.31-7.27-1.56
				c-1.9-0.32-3.81-0.57-5.73-0.75c-1.85-0.18-3.71-0.29-5.57-0.34c-2.02-0.05-5.59,0.78-7.44,0.15c-4.11-1.39-2.44-9.42-2.45-13.08
				c-0.01-2.5-0.01-5.01-0.02-7.51c-0.01-2.05-0.72-5.92,0.18-7.79c1.59-3.29,11.82-1.15,14.47-0.91c5.54,0.5,11.06,1.15,16.56,1.93
				c0.94,0.13,1.35-1.31,0.4-1.45c-6.26-0.88-12.53-1.62-18.83-2.14c-3.4-0.28-10.87-2.47-13.42,0.8c-2.3,2.95-0.86,9.92-0.85,13.32
				c0.01,3.76,0.02,7.51,0.03,11.27c0,1.69-0.58,4.39,0.49,5.91c1.75,2.48,7.63,0.96,9.94,0.99c3.96,0.06,7.92,0.4,11.83,1.05
				c2.52,0.42,5.83,2.01,8.35,1.75c3.11-0.31,2.86-4.52,3.35-6.89c1.53-7.31,3.06-14.62,4.59-21.93
				C311.34,235.23,309.89,234.83,309.69,235.78L309.69,235.78z"/>
		</g>
	</g>
	<g>
		<g>
			<path d="M227.53,233c0.71,5.35,1.19,10.72,1.36,16.11c0.12,4,1.47,12.55-1.37,15.49c-2.02,2.09-5.96,1.22-8.82,1.22
				c-2.56,0-5.12,0-7.68,0c-4.5,0-14.78,1.85-16.81-3.11c-1.07-2.6-0.99-6.43-1.3-9.15c-0.3-2.61-0.54-5.22-0.72-7.84
				c-0.25-3.53-2.45-14.9,1.47-16.33c1.92-0.7,5.69,0.18,7.76,0.25c2.59,0.08,5.17,0.16,7.76,0.25c5.82,0.18,11.64,0.37,17.46,0.55
				c0.97,0.03,0.96-1.47,0-1.5c-7.76-0.25-15.52-0.49-23.27-0.74c-3.34-0.11-11.03-2.23-12.92,1.48c-0.95,1.85-0.19,5.14-0.15,7.19
				c0.08,3.94,0.29,7.87,0.63,11.79c0.29,3.34,0.67,6.66,1.14,9.98c0.3,2.1,0.3,5.65,1.92,7.38c0.92,0.99,1.77,1.13,3.06,1.28
				c3.58,0.42,7.51,0.02,11.11,0.02c3.84,0,7.68,0,11.52,0c2.33,0,6.14,0.75,8.37-0.24c3.36-1.49,2.34-7.53,2.4-10.37
				c0.16-7.94-0.36-15.85-1.4-23.73C228.91,232.05,227.4,232.04,227.53,233L227.53,233z"/>
		</g>
	</g>
	<g>
		<g>
			<path d="M149.52,237.33c0.21,3.01,0.38,6.02,0.47,9.04c0.09,3.44,0.97,8.02-1.4,10.6c-2.25,2.44-6.36,1.55-9.63,1.56
				c-3.04,0.01-9.01,1.28-10.71-2.09c-0.99-1.96-0.23-6.75-0.31-8.98c-0.05-1.5-0.1-2.99-0.16-4.49c-0.07-2.1,0.39-5.36,2.71-6.41
				c2.06-0.94,6.83,0.08,9.1,0.11c3.27,0.05,6.54,0.1,9.82,0.15c-0.18-0.43-0.35-0.85-0.53-1.28c-3.44,3.02-7.12,4.96-11.55,6.11
				c-0.93,0.24-0.54,1.69,0.4,1.45c4.64-1.21,8.61-3.33,12.21-6.5c0.51-0.44,0.09-1.27-0.53-1.28c-5.35-0.08-10.71-0.19-16.06-0.25
				c-2.04-0.02-4.87-0.4-6.33,1.45c-2.08,2.62-0.68,7.95-0.58,10.94c0.1,2.97-1.01,8.98,0.98,11.46c1.58,1.97,5.91,1.12,7.89,1.12
				c2.74-0.01,5.47-0.01,8.21-0.02c1.77,0,4.07,0.39,5.74-0.34c2.18-0.97,2.19-2.97,2.26-5.15c0.18-5.73-0.1-11.48-0.5-17.19
				C150.96,236.37,149.46,236.36,149.52,237.33L149.52,237.33z"/>
		</g>
	</g>
	<g>
		<g>
			<path d="M756.69,164.13c1.93,0,1.93-3,0-3C754.76,161.13,754.76,164.13,756.69,164.13L756.69,164.13z"/>
		</g>
	</g>
</g>
</svg>
